<svg viewBox="0 0 24 24" fill="none" class="dig-UIIcon" width="32" height="32" role="presentation" focusable="false" xmlns="http://www.w3.org/2000/svg"><path d="M12 4c-5.159 0-8 2.841-8 8s2.841 8 8 8 8-2.841 8-8-2.841-8-8-8Zm0 14.5c-4.374 0-6.5-2.126-6.5-6.5 0-4.374 2.126-6.5 6.5-6.5 4.374 0 6.5 2.126 6.5 6.5 0 4.374-2.126 6.5-6.5 6.5Z" fill="currentColor" vector-effect="non-scaling-stroke"></path><path d="M11 9H9.5v6H11V9Zm3.5 0H13v6h1.5V9Z" fill="currentColor" vector-effect="non-scaling-stroke"></path></svg>